<svg width="88" height="36" viewBox="0 0 88 36" fill="none" xmlns="http://www.w3.org/2000/svg">
<path d="M74.5268 0H1.74121C1.50822 0 1.31934 0.189134 1.31934 0.422442V35.3393C1.31934 35.5726 1.50822 35.7617 1.74121 35.7617H74.5268C74.7598 35.7617 74.9486 35.5726 74.9486 35.3393V0.422442C74.9486 0.189134 74.7598 0 74.5268 0Z" fill="black"/>
<path d="M30.5366 4.53564V8.92137H11.832V16.0683C10.1828 15.9301 8.57203 15.9493 6.97656 16.2949V4.53564H30.5366Z" fill="white"/>
<path d="M0 21.9823C2.47758 21.4907 4.78257 21.5291 6.97634 21.771V30.892H31.2497V26.4602H11.8318V22.5506C17.4543 23.5684 22.6089 24.3134 28.5804 18.3185C17.2817 21.1719 8.7674 12.6616 0 21.9899" fill="white"/>
<path d="M70.1967 4.53174H65.3413V30.8883H70.1967V4.53174Z" fill="white"/>
<path d="M50.9129 4.53564H35.4453V30.8884H40.3008V24.7899H50.9129C56.9573 24.7899 61.621 20.8804 61.621 14.7357C61.621 8.5911 56.9573 4.53564 50.9129 4.53564ZM50.7211 20.3581H40.3008V8.96746H50.7211C54.3378 8.96746 56.8154 11.1603 56.8154 14.7357C56.8154 18.3111 54.3416 20.3581 50.7211 20.3581Z" fill="white"/>
<path d="M78.2012 35.6463V30.8804H79.601V32.4933H87.9964V34.0333H79.601V35.6463H78.2012Z" fill="white"/>
<path d="M87.9964 26.9863C87.9312 27.0055 87.8699 27.0247 87.8162 27.0439C87.7586 27.0631 87.6896 27.0785 87.6052 27.0938C87.5209 27.1092 87.4135 27.1169 87.2831 27.1207C87.1527 27.1246 86.9878 27.1284 86.7922 27.1284H85.2542C84.7978 27.1284 84.4757 27.2091 84.2877 27.3665C84.0998 27.524 84.0078 27.7813 84.0078 28.1384V28.6722H87.9964V30.2122H78.2012V27.885C78.2012 27.0823 78.3891 26.4986 78.7611 26.1414C79.1331 25.7804 79.7008 25.5999 80.4563 25.5999H81.2272C82.2359 25.5999 82.8994 25.9379 83.2139 26.61C83.3711 26.2182 83.6319 25.9494 83.9924 25.8035C84.3529 25.6575 84.7863 25.5846 85.3002 25.5846H86.8113C87.0529 25.5846 87.2677 25.5769 87.448 25.5577C87.6282 25.5385 87.8162 25.4924 88.0003 25.4194V26.9902L87.9964 26.9863ZM79.601 28.6684H82.6117V28.0655C82.6117 27.7774 82.5388 27.5509 82.3893 27.3857C82.2397 27.2244 81.9712 27.1399 81.5762 27.1399H80.6097C80.2569 27.1399 79.9999 27.2014 79.8388 27.3281C79.6816 27.4548 79.601 27.6545 79.601 27.9234V28.6646V28.6684Z" fill="white"/>
<path d="M87.9964 19.5898V21.1451L86.2207 21.4101V23.3034L87.9964 23.5684V24.9855L78.2012 23.4148V21.1567L87.9964 19.5859V19.5898ZM84.8899 23.1076V21.6213L79.9347 22.3625L84.8899 23.1037V23.1076Z" fill="white"/>
<path d="M78.2012 18.8754V17.3354H87.9964V18.8754H78.2012Z" fill="white"/>
<path d="M80.9012 14.8393H87.9964V16.2257H78.2012V14.2901L84.0653 12.7079H78.2012V11.333H87.9964V12.9153L80.9012 14.8354V14.8393Z" fill="white"/>
<path d="M82.3318 8.68678V6.57073H83.7317V8.68678H86.6005V6.02539H88.0003V10.2306H78.2051V6.02539H79.6049V8.68678H82.3357H82.3318Z" fill="white"/>
<path d="M87.9964 1.84715C87.9312 1.86635 87.8699 1.88556 87.8162 1.90476C87.7586 1.92396 87.6896 1.93932 87.6052 1.95468C87.5209 1.97005 87.4135 1.97773 87.2831 1.98157C87.1527 1.98541 86.9878 1.98925 86.7922 1.98925H85.2542C84.7978 1.98925 84.4757 2.0699 84.2877 2.22735C84.0998 2.38481 84.0078 2.64211 84.0078 2.99927V3.53308H87.9964V5.07308H78.2012V2.7458C78.2012 1.94316 78.3891 1.35942 78.7611 1.00227C79.1331 0.641269 79.7008 0.464612 80.4563 0.464612H81.2272C82.2359 0.464612 82.8994 0.802567 83.2139 1.47464C83.3711 1.08292 83.6319 0.814087 83.9924 0.668152C84.3529 0.522217 84.7863 0.44925 85.3002 0.44925H86.8113C87.0529 0.44925 87.2677 0.441569 87.448 0.422368C87.6282 0.403166 87.8162 0.357081 88.0003 0.280273V1.85099L87.9964 1.84715ZM79.601 3.52924H82.6117V2.9263C82.6117 2.63827 82.5388 2.41169 82.3893 2.24655C82.2397 2.08142 81.9712 2.00077 81.5762 2.00077H80.6097C80.2569 2.00077 79.9999 2.06221 79.8388 2.18895C79.6816 2.31568 79.601 2.51538 79.601 2.78421V3.5254V3.52924Z" fill="white"/>
</svg>
