<svg width="149" height="61" viewBox="0 0 149 61" fill="none" xmlns="http://www.w3.org/2000/svg">
<path d="M126.187 0.115021H2.9482C2.5537 0.115021 2.23389 0.435258 2.23389 0.830293V59.9509C2.23389 60.3459 2.5537 60.6661 2.9482 60.6661H126.187C126.582 60.6661 126.902 60.3459 126.902 59.9509V0.830293C126.902 0.435258 126.582 0.115021 126.187 0.115021Z" fill="white"/>
<path d="M51.7039 7.79442V15.2203H20.0336V27.3214C17.2413 27.0873 14.5139 27.1198 11.8125 27.705V7.79442H51.7039Z" fill="black"/>
<path d="M0 37.3352C4.19499 36.5029 8.09776 36.5679 11.8122 36.9776V52.421H52.9114V44.9171H20.0333V38.2976C29.5532 40.0207 38.2809 41.2822 48.3917 31.1318C29.261 35.9632 14.8448 21.5537 0 37.3482" fill="black"/>
<path d="M118.856 7.78793H110.635V52.4145H118.856V7.78793Z" fill="black"/>
<path d="M86.2051 7.79442H60.0156V52.4144H68.2368V42.0885H86.2051C96.4393 42.0885 104.336 35.469 104.336 25.065C104.336 14.661 96.4393 7.79442 86.2051 7.79442ZM85.8804 34.5846H68.2368V15.2983H85.8804C92.004 15.2983 96.199 19.0112 96.199 25.065C96.199 31.1188 92.0105 34.5846 85.8804 34.5846Z" fill="black"/>
<path d="M132.408 60.471V52.4015H134.778V55.1325H148.993V57.74H134.778V60.471H132.408Z" fill="white"/>
<path d="M148.993 45.808C148.883 45.8405 148.779 45.873 148.688 45.9055C148.591 45.938 148.474 45.964 148.331 45.9901C148.188 46.0161 148.006 46.0291 147.786 46.0356C147.565 46.0421 147.285 46.0486 146.954 46.0486H144.35C143.578 46.0486 143.032 46.1851 142.714 46.4517C142.396 46.7183 142.24 47.154 142.24 47.7587V48.6626H148.993V51.2701H132.408V47.3296C132.408 45.9705 132.726 44.9822 133.356 44.3774C133.986 43.7662 134.947 43.4606 136.227 43.4606H137.532C139.24 43.4606 140.363 44.0328 140.896 45.1707C141.162 44.5075 141.603 44.0523 142.214 43.8052C142.824 43.5581 143.558 43.4346 144.428 43.4346H146.987C147.396 43.4346 147.76 43.4216 148.065 43.3891C148.37 43.3565 148.688 43.2785 149 43.155V45.8145L148.993 45.808ZM134.778 48.6561H139.876V47.6352C139.876 47.1475 139.753 46.7638 139.499 46.4842C139.246 46.2111 138.792 46.0681 138.123 46.0681H136.486C135.889 46.0681 135.454 46.1721 135.181 46.3867C134.915 46.6013 134.778 46.9394 134.778 47.3946V48.6496V48.6561Z" fill="white"/>
<path d="M148.993 33.2842V35.9177L145.987 36.3663V39.5721L148.993 40.0207V42.4201L132.408 39.7606V35.9372L148.993 33.2776V33.2842ZM143.733 39.2404V36.724L135.343 37.9789L143.733 39.2339V39.2404Z" fill="white"/>
<path d="M132.408 32.0747V29.4672H148.993V32.0747H132.408Z" fill="white"/>
<path d="M136.98 25.2406H148.993V27.588H132.408V24.3108L142.337 21.6317H132.408V19.3038H148.993V21.9829L136.98 25.2341V25.2406Z" fill="white"/>
<path d="M139.402 14.8236V11.2408H141.772V14.8236H146.629V10.3174H149V17.4376H132.415V10.3174H134.785V14.8236H139.408H139.402Z" fill="white"/>
<path d="M148.993 3.24272C148.883 3.27523 148.779 3.30774 148.688 3.34026C148.591 3.37277 148.474 3.39878 148.331 3.42479C148.188 3.4508 148.006 3.4638 147.786 3.47031C147.565 3.47681 147.285 3.48331 146.954 3.48331H144.35C143.578 3.48331 143.032 3.61986 142.714 3.88646C142.396 4.15307 142.24 4.58873 142.24 5.19346V6.09731H148.993V8.7048H132.408V4.7643C132.408 3.40528 132.726 2.4169 133.356 1.81217C133.986 1.20094 134.947 0.901825 136.227 0.901825H137.532C139.24 0.901825 140.363 1.47404 140.896 2.61198C141.162 1.94873 141.603 1.49355 142.214 1.24646C142.824 0.999362 143.558 0.875815 144.428 0.875815H146.987C147.396 0.875815 147.76 0.86281 148.065 0.830298C148.37 0.797785 148.688 0.719756 149 0.589706V3.24922L148.993 3.24272ZM134.778 6.09081H139.876V5.06992C139.876 4.58223 139.753 4.19858 139.499 3.91898C139.246 3.63937 138.792 3.50282 138.123 3.50282H136.486C135.889 3.50282 135.454 3.60686 135.181 3.82144C134.915 4.03602 134.778 4.37415 134.778 4.82932V6.0843V6.09081Z" fill="white"/>
</svg>
